<svg id="Layer_1" data-name="Layer 1" xmlns="http://www.w3.org/2000/svg" viewBox="0 0 109.31 105.37"><defs><style>.cls-1{fill:#eefc4f;}.cls-2{fill:blue;}</style></defs><path class="cls-1" d="M64.56,65.51" transform="translate(-9.2 -9.74)"/><path class="cls-1" d="M64.06,76.62" transform="translate(-9.2 -9.74)"/><path class="cls-1" d="M57.11,40.48" transform="translate(-9.2 -9.74)"/><path class="cls-1" d="M31.89,56.57H96.2c.61-1.66,5.86-16.72-3.35-31C82.94,10.27,65.28,9.76,63.91,9.74c-2,0-17,.48-27,13.15C25.29,37.74,31.5,55.53,31.89,56.57Z" transform="translate(-9.2 -9.74)"/><path class="cls-1" d="M63.86,77.6" transform="translate(-9.2 -9.74)"/><path class="cls-2" d="M63.86,115.11H27.93L9.2,57.69H30a38.71,38.71,0,0,0,33.9,20.86" transform="translate(-9.2 -9.74)"/><path class="cls-2" d="M63.86,78.55a38.71,38.71,0,0,0,33.9-20.86h20.76L99.79,115.11H63.86" transform="translate(-9.2 -9.74)"/></svg>